<svg width="221" height="66" viewBox="0 0 221 66" fill="none" xmlns="http://www.w3.org/2000/svg">
<path d="M90.6435 53.3505C90.1995 53.0672 89.6547 52.8648 89.0493 52.7433C89.4126 52.6017 89.7354 52.4195 90.0179 52.1969C90.5224 51.7921 90.9058 51.3266 91.1278 50.7801C91.3497 50.2539 91.4305 49.6872 91.3699 49.1205C91.3094 48.5336 91.1076 48.0074 90.7646 47.5216C90.4215 47.0359 89.917 46.6513 89.2915 46.3477C88.6659 46.0442 87.879 45.8822 86.9507 45.8822H79.646V46.0846V46.287C80.1706 46.287 80.5339 46.3882 80.7155 46.5906C80.8971 46.793 80.998 47.1775 80.998 47.724V59.0377C80.998 59.5639 80.8971 59.9485 80.7155 60.1711C80.5339 60.3735 80.1908 60.4949 79.646 60.4949V60.6973V60.8997H87.5965C88.6659 60.8997 89.574 60.6973 90.3004 60.3128C91.0269 59.9282 91.5919 59.4425 91.9753 58.8353C92.3587 58.2484 92.5806 57.5805 92.6008 56.8924C92.621 56.2042 92.4798 55.5363 92.1569 54.9292C91.834 54.3017 91.3094 53.7755 90.6435 53.3505ZM90.3408 54.9696C90.5829 55.5161 90.704 56.103 90.704 56.7102C90.704 57.3376 90.5829 57.9246 90.361 58.471C90.139 58.9972 89.7758 59.4425 89.3117 59.8068C88.8476 60.1509 88.2825 60.333 87.5965 60.333H83.7827C83.3186 60.333 83.0159 60.2521 82.8746 60.0902C82.7334 59.9282 82.6526 59.6449 82.6526 59.2603V53.1279H87.5763C88.2624 53.1279 88.8476 53.31 89.2915 53.6541C89.7556 53.9982 90.1188 54.4434 90.3408 54.9696ZM89.2713 47.9669C89.4731 48.4324 89.574 48.9384 89.5538 49.4848C89.5538 50.0313 89.4529 50.5575 89.2511 51.0028C89.0493 51.448 88.7668 51.8528 88.3633 52.1564C87.9799 52.46 87.4956 52.6017 86.9306 52.6017H82.6526L82.6728 46.368H86.9306C87.5158 46.368 88 46.5097 88.3834 46.8132C88.787 47.1371 89.0897 47.5216 89.2713 47.9669Z" fill="#37783A"/>
<path d="M105.858 56.8114C105.737 56.7709 105.596 56.8114 105.515 57.0138C105.293 57.4591 105.071 57.8841 104.829 58.2686C104.587 58.6329 104.305 58.977 104.002 59.2401C103.699 59.5032 103.356 59.7258 102.973 59.8675C102.589 60.0092 102.145 60.0902 101.621 60.0902C101.015 60.0902 100.43 59.9687 99.8652 59.7461C99.3204 59.5235 98.8361 59.1592 98.4123 58.7139C97.9886 58.2686 97.6657 57.7019 97.4034 57.034C97.1613 56.3864 97.0402 55.5971 97.0402 54.747C97.0402 53.9172 97.1613 53.1886 97.3832 52.6017C97.6052 52.0147 97.9079 51.529 98.2509 51.1647C98.6141 50.8004 98.9975 50.5373 99.4415 50.3753C99.8854 50.2134 100.329 50.1325 100.773 50.1325C101.258 50.1325 101.681 50.1932 102.045 50.2944C102.388 50.3956 102.67 50.5575 102.892 50.7194C103.094 50.8813 103.255 51.0837 103.356 51.2861C103.457 51.4885 103.497 51.6909 103.497 51.873C103.497 52.035 103.457 52.1766 103.397 52.2778C103.336 52.379 103.255 52.46 103.134 52.5005C103.013 52.5612 102.872 52.6017 102.71 52.6421C102.549 52.6826 102.388 52.6826 102.186 52.6826C101.722 52.7028 101.298 52.7029 100.894 52.7231L98.5536 52.7636C98.3518 52.7636 98.3114 52.7636 98.2509 52.7838C98.1904 52.7838 98.1298 52.804 97.9281 52.804V53.2088H103.053C103.719 53.2088 104.163 53.1684 104.405 53.1076C104.627 53.0469 104.89 52.8648 104.89 52.3183C104.89 51.954 104.789 51.5897 104.587 51.2456C104.385 50.9218 104.103 50.6182 103.74 50.3753C103.376 50.1325 102.953 49.9503 102.468 49.8086C101.984 49.667 101.439 49.6063 100.854 49.6265C100.148 49.6467 99.4616 49.7682 98.7957 49.9908C98.1298 50.2134 97.5245 50.5777 96.9998 51.0635C96.4752 51.5492 96.0514 52.1362 95.7285 52.8648C95.4057 53.5731 95.2443 54.4434 95.2443 55.4149C95.2443 56.3459 95.4057 57.1757 95.7084 57.8638C96.0111 58.5722 96.4146 59.1592 96.9191 59.6247C97.4236 60.0902 97.9886 60.4545 98.6343 60.6771C99.28 60.8997 99.9258 61.0212 100.592 61.0212C101.419 61.0212 102.145 60.8592 102.791 60.5557C103.417 60.2521 103.982 59.8878 104.426 59.483C104.87 59.0782 105.233 58.6532 105.475 58.2686C105.737 57.8638 105.899 57.5603 105.979 57.3376C106.04 57.1555 106.06 57.034 106.02 56.9531C105.959 56.8721 105.919 56.8316 105.858 56.8114Z" fill="#37783A"/>
<path d="M117.784 59.8878C117.703 59.9687 117.623 60.0497 117.502 60.1306C117.38 60.2116 117.28 60.2318 117.239 60.2318C117.219 60.2318 117.199 60.2318 117.158 60.1913C117.158 60.1711 117.098 60.1104 117.098 59.8473V52.7636C117.098 52.2373 116.977 51.7718 116.715 51.3671C116.472 50.9825 116.15 50.6385 115.726 50.3753C115.322 50.1122 114.858 49.9301 114.354 49.7884C113.849 49.667 113.324 49.586 112.8 49.586C112.053 49.586 111.327 49.7074 110.641 49.9503C109.934 50.1932 109.369 50.5777 108.946 51.0837C108.724 51.3266 108.582 51.5695 108.522 51.7921C108.461 52.0147 108.441 52.2171 108.482 52.3993C108.522 52.5814 108.623 52.7231 108.744 52.8243C109.026 53.0469 109.43 53.0469 109.733 52.7636C109.894 52.6219 109.995 52.4195 110.096 52.1159C110.177 51.7921 110.298 51.5087 110.479 51.2659C110.661 51.023 110.883 50.8004 111.125 50.6384C111.387 50.4563 111.65 50.3349 111.952 50.2337C112.578 50.0515 113.224 50.0515 113.789 50.2539C114.091 50.3551 114.354 50.517 114.576 50.7194C114.798 50.9218 114.999 51.2052 115.141 51.529C115.282 51.873 115.363 52.2778 115.363 52.7231V57.7626C115.302 58.1472 115.181 58.4913 114.959 58.7948C114.737 59.1187 114.455 59.3818 114.132 59.6044C113.809 59.827 113.446 60.0092 113.062 60.1306C112.356 60.3533 111.629 60.3937 110.984 60.1711C110.701 60.0699 110.419 59.908 110.197 59.7056C109.975 59.5032 109.793 59.2199 109.652 58.896C109.511 58.552 109.45 58.1472 109.45 57.6817C109.45 57.2971 109.531 56.9733 109.692 56.7102C109.854 56.4269 110.056 56.2042 110.318 56.0018C110.58 55.7994 110.903 55.6375 111.266 55.4959C111.629 55.3542 112.033 55.2327 112.416 55.1316C112.82 55.0304 113.244 54.9292 113.668 54.8482C114.091 54.7672 114.515 54.6661 114.878 54.5446L114.757 54.1601C114.414 54.2613 114.011 54.3422 113.546 54.4232C113.062 54.5041 112.558 54.6053 112.053 54.7065C111.549 54.828 111.024 54.9494 110.54 55.1113C110.035 55.2732 109.571 55.4959 109.168 55.759C108.764 56.0221 108.421 56.3661 108.159 56.7709C107.896 57.1757 107.755 57.6817 107.755 58.2686C107.755 58.7544 107.856 59.1996 108.038 59.5437C108.219 59.8878 108.482 60.1913 108.804 60.4342C109.127 60.6771 109.491 60.839 109.914 60.9604C110.318 61.0616 110.742 61.1224 111.186 61.1224C111.65 61.1224 112.134 61.0616 112.618 60.9402C113.103 60.8188 113.546 60.6568 113.95 60.414C114.354 60.1913 114.737 59.8878 115.06 59.5639C115.181 59.4425 115.302 59.3008 115.403 59.1389V59.8675C115.403 60.2925 115.504 60.5961 115.685 60.7783C116.069 61.1628 116.715 61.1223 117.38 60.7783C117.723 60.5961 118.006 60.3937 118.268 60.1509C118.329 60.0901 118.369 60.0092 118.369 59.9282C118.369 59.8675 118.329 59.7866 118.268 59.7461C118.087 59.6044 117.885 59.7866 117.784 59.8878Z" fill="#37783A"/>
<path d="M131.364 59.8878C131.284 59.9687 131.203 60.0497 131.082 60.1306C130.981 60.2116 130.88 60.2318 130.82 60.2318C130.799 60.2318 130.779 60.2318 130.739 60.1913C130.739 60.1711 130.678 60.1104 130.678 59.8473V49.667L130.416 49.4646L128.095 50.1729L128.156 50.5777C128.378 50.5777 128.56 50.598 128.681 50.6182C128.781 50.6385 128.842 50.6789 128.882 50.6992C128.923 50.7396 128.943 50.8004 128.943 50.8813C128.963 51.023 128.963 51.2051 128.963 51.4278V57.3983C128.761 57.8841 128.519 58.2889 128.237 58.6329C127.934 58.9972 127.631 59.2806 127.308 59.5032C126.986 59.7258 126.643 59.8878 126.299 59.989C125.573 60.2116 124.867 60.1913 124.241 59.989C123.939 59.8878 123.656 59.7258 123.434 59.5437C123.212 59.3413 123.031 59.0984 122.889 58.8151C122.748 58.5317 122.687 58.2079 122.687 57.8638L122.708 49.6265L122.445 49.4241L120.125 50.1325L120.185 50.5373C120.407 50.5373 120.589 50.5575 120.73 50.5777C120.831 50.598 120.892 50.6384 120.932 50.6789C120.972 50.7194 120.992 50.8004 120.992 50.9016C121.013 51.0432 121.013 51.2051 121.013 51.4075V58.1674C121.013 58.6329 121.114 59.058 121.315 59.4223C121.517 59.7866 121.779 60.0901 122.102 60.3533C122.425 60.5961 122.809 60.7985 123.232 60.9402C123.656 61.0616 124.12 61.1426 124.584 61.1426C125.008 61.1426 125.472 61.0819 125.936 60.9604C126.4 60.839 126.844 60.6366 127.268 60.3735C127.692 60.1104 128.075 59.7866 128.438 59.3818C128.64 59.1591 128.822 58.9163 128.983 58.6532V59.8675C128.983 60.2925 129.084 60.5961 129.266 60.7783C129.649 61.1628 130.295 61.1223 130.961 60.7783C131.304 60.5961 131.586 60.3937 131.849 60.1509C131.909 60.0901 131.95 60.0092 131.95 59.9282C131.95 59.8675 131.909 59.7866 131.849 59.7461C131.647 59.6044 131.465 59.8068 131.364 59.8878Z" fill="#37783A"/>
<path d="M138.81 59.5235C138.649 59.4223 138.528 59.3818 138.427 59.3818C138.245 59.3818 138.084 59.4425 137.943 59.5842C137.822 59.6854 137.701 59.8068 137.58 59.9282C137.479 60.0497 137.378 60.1509 137.297 60.2521C137.277 60.2723 137.257 60.2925 137.236 60.3128C137.216 60.2723 137.176 60.1711 137.136 59.908C137.115 59.6854 137.095 59.402 137.055 59.0175C137.035 58.6329 137.015 58.1674 137.015 57.5805V50.3753H138.528L138.73 50.173V50.0718L138.528 49.8694H137.015V48.4324L136.692 48.2705L134.654 49.9098L134.573 50.0718V50.1527L134.775 50.3551H135.319V56.7304C135.319 57.3174 135.34 57.8638 135.36 58.3496C135.38 58.8556 135.501 59.3211 135.683 59.7056C135.864 60.1104 136.167 60.414 136.571 60.6366C136.954 60.8592 137.519 60.9604 138.205 60.9604C138.488 60.9604 138.689 60.8997 138.851 60.7985C138.992 60.6973 139.093 60.5557 139.133 60.3937C139.174 60.2318 139.174 60.0699 139.113 59.908C139.053 59.7461 138.952 59.6247 138.81 59.5235Z" fill="#37783A"/>
<path d="M153.703 50.011V49.8086H150.857V50.2134C151.442 50.2134 151.463 50.4563 151.483 50.5575C151.523 50.8611 151.442 51.2456 151.22 51.6909L147.77 59.058L144.4 51.7921C144.138 51.2659 144.017 50.8408 144.057 50.5373C144.057 50.4563 144.097 50.2134 144.683 50.2134V49.8086H141.01V50.2134C141.171 50.2134 141.333 50.2337 141.474 50.2944C141.595 50.3349 141.736 50.4361 141.858 50.5575C141.999 50.6992 142.14 50.8813 142.261 51.104C142.402 51.3266 142.564 51.6302 142.725 52.0147L146.922 60.92L146.539 61.689C146.438 61.9117 146.297 62.2355 146.095 62.6201C145.893 63.0046 145.651 63.4094 145.389 63.8142C145.126 64.1987 144.864 64.5428 144.561 64.8261C144.118 65.2511 143.714 65.3119 143.391 65.0892C143.23 64.9678 143.088 64.8464 142.947 64.7047C142.786 64.5428 142.604 64.4011 142.423 64.2594C142.221 64.0975 141.979 63.9963 141.696 63.9761C141.494 63.9558 141.292 64.0166 141.151 64.1582C140.99 64.3201 140.929 64.5225 140.97 64.7452C141.01 64.9678 141.151 65.1702 141.393 65.3928C141.636 65.5952 141.999 65.7774 142.503 65.8988C142.705 65.9595 142.927 66 143.189 66C143.694 66 144.178 65.8583 144.582 65.575C144.965 65.2916 145.328 64.9476 145.651 64.5428C145.954 64.138 146.236 63.713 146.478 63.2475C146.721 62.782 146.902 62.3772 147.084 62.0129L151.564 52.4195C151.765 51.9742 151.967 51.5897 152.129 51.3063C152.29 51.023 152.472 50.8004 152.633 50.6384C152.794 50.4765 152.956 50.3753 153.117 50.3146C153.279 50.2539 153.481 50.2134 153.703 50.2134V50.011Z" fill="#37783A"/>
<path d="M88.4642 27.3027V27.7075C90.3005 27.7682 93.0448 28.0313 93.3273 28.4765C93.5291 28.7801 93.63 29.1647 93.63 29.6707V29.7921C93.63 30.7028 93.63 32.4029 92.4596 33.6375C92.0762 34.0423 91.5314 34.3661 90.805 34.6293C89.3521 35.1555 87.3342 35.0745 85.7603 34.4269C84.8724 34.0626 84.045 33.5161 83.3186 32.7672C82.5922 32.0386 81.9868 31.0874 81.5429 29.9742C81.0989 28.8611 80.8568 27.5253 80.8568 26.0276C80.8568 24.8335 81.0586 23.7406 81.4823 22.8096C81.8859 21.8583 82.4307 21.0488 83.0966 20.4011C83.7625 19.7534 84.5293 19.2272 85.3567 18.8832C86.8701 18.2355 88.444 18.1748 89.8969 18.6808C90.5427 18.9034 91.1278 19.2677 91.6727 19.7534C92.2175 20.2392 92.7018 20.8666 93.1255 21.6155C93.5291 22.3643 93.852 23.2751 94.0538 24.3477L94.4573 24.3073L94.3968 17.6283L94.0538 17.4867L93.7511 17.8105C93.4484 18.1343 93.1457 18.2962 92.8632 18.2962C92.6816 18.2962 92.4596 18.2557 92.2175 18.1748C91.935 18.0736 91.592 17.9724 91.2086 17.8712C90.805 17.7498 90.3409 17.6486 89.8162 17.5676C89.2714 17.4664 88.6458 17.4259 87.9194 17.4259C86.7894 17.4259 85.6594 17.6283 84.5495 18.0331C83.4397 18.4379 82.4307 19.0248 81.5429 19.8142C80.655 20.6035 79.9286 21.5952 79.3837 22.7488C78.8389 23.9227 78.5564 25.2787 78.5564 26.8169C78.5564 28.3753 78.7985 29.7516 79.303 30.9457C79.8075 32.1398 80.4734 33.1316 81.2805 33.9209C82.1079 34.7102 83.0361 35.3174 84.0854 35.7222C85.1347 36.127 86.5069 36.4305 87.5764 36.471C87.879 36.4913 88.1615 36.4913 88.4239 36.4913C90.361 36.4913 91.4103 36.1674 92.5807 35.5805C93.5493 35.0948 94.3161 34.4673 94.8609 33.678C95.7286 32.4232 95.8497 31.0874 95.9304 30.1969C95.9506 30.0147 95.9506 29.873 95.9708 29.7314C95.9909 29.6099 96.0111 29.4885 96.0111 29.3671C96.0717 28.9016 96.1322 28.4563 96.2533 28.2741C96.5963 27.8086 97.4236 27.7479 97.4236 27.7479L97.4035 27.3431H88.4642V27.3027Z" fill="#37783A"/>
<path d="M107.897 22.2024C107.695 22.0405 107.412 21.9798 107.029 21.9798C106.625 21.9798 106.202 22.0202 105.778 22.1214C105.354 22.2024 104.93 22.3643 104.547 22.5465C104.184 22.7286 103.841 22.9715 103.538 23.2548V22.1012L103.276 21.8988L99.0178 23.2144L99.0784 23.6191H100.39C100.713 23.6191 100.894 23.6394 100.995 23.6596C101.096 23.6799 101.137 23.7203 101.157 23.7203C101.157 23.7406 101.197 23.7811 101.197 23.9025C101.217 24.0644 101.217 24.2466 101.217 24.4894V33.5566C101.217 34.2042 101.116 34.6697 100.935 34.8519C100.733 35.0543 100.451 35.1352 100.067 35.1352L99.8653 35.3376V35.7424L100.067 35.9448H104.708L104.91 35.7424V35.3376L104.708 35.1352C104.345 35.1352 104.063 35.034 103.861 34.8317C103.72 34.7102 103.558 34.3661 103.558 33.5363V26.4324C103.558 25.8455 103.598 25.3597 103.679 25.0156C103.76 24.6716 103.841 24.4085 103.962 24.2263C104.042 24.0644 104.143 23.9632 104.264 23.9227C104.385 23.862 104.547 23.8418 104.708 23.8418C105.051 23.8418 105.415 23.9025 105.778 24.0239C106.383 24.2263 107.231 24.4489 107.876 24.0037C108.058 23.862 108.199 23.6799 108.3 23.4775C108.401 23.2548 108.401 23.012 108.34 22.7893C108.24 22.5465 108.098 22.3643 107.897 22.2024Z" fill="#37783A"/>
<path d="M138.407 30.885L138.306 30.804L138.225 30.7838C138.024 30.7231 137.741 30.7838 137.62 31.0874C137.358 31.6136 137.075 32.1196 136.793 32.5649C136.51 33.0101 136.187 33.3744 135.844 33.6983C135.501 34.0018 135.098 34.265 134.654 34.4269C134.21 34.609 133.685 34.69 133.1 34.69C132.394 34.69 131.708 34.5483 131.062 34.2852C130.416 34.0221 129.851 33.6173 129.367 33.0911C128.883 32.5649 128.479 31.897 128.196 31.1279C127.914 30.3588 127.753 29.448 127.753 28.4361C127.753 27.8086 127.813 27.2217 127.914 26.7157L127.954 26.7562H134.835C135.663 26.7562 136.187 26.7157 136.51 26.6348C136.773 26.5538 137.216 26.3312 137.216 25.5419C137.216 25.0764 137.075 24.6109 136.813 24.1858C136.551 23.7608 136.207 23.3965 135.743 23.0929C135.299 22.7893 134.775 22.5465 134.169 22.3845C133.564 22.2226 132.898 22.1417 132.172 22.1619C131.324 22.1822 130.477 22.3238 129.649 22.6072C128.822 22.8905 128.075 23.3358 127.43 23.9227C126.784 24.5097 126.259 25.2585 125.856 26.1288C125.452 26.9991 125.25 28.0515 125.25 29.2456C125.25 30.379 125.432 31.391 125.815 32.2613C126.179 33.1113 126.683 33.8602 127.288 34.4269C127.894 35.0138 128.62 35.4388 129.407 35.7222C130.194 36.0055 131.001 36.1472 131.809 36.1472C132.817 36.1472 133.725 35.965 134.512 35.5805C135.279 35.2162 135.965 34.7709 136.51 34.2649C137.055 33.759 137.479 33.253 137.802 32.7673C138.124 32.2613 138.326 31.8767 138.407 31.6136C138.488 31.4112 138.528 31.2088 138.447 31.0267L138.407 30.885ZM128.136 25.9062C128.398 25.218 128.741 24.6716 129.145 24.2465C129.548 23.8215 130.013 23.5179 130.517 23.3358C131.022 23.1536 131.546 23.0524 132.071 23.0524C132.636 23.0524 133.14 23.1132 133.544 23.2548C133.947 23.3763 134.27 23.5382 134.512 23.7406C134.755 23.9227 134.916 24.1251 135.037 24.3477C135.138 24.5704 135.199 24.793 135.199 24.9954C135.199 25.1776 135.178 25.299 135.118 25.4002C135.057 25.5014 134.977 25.5621 134.876 25.6228C134.734 25.6835 134.593 25.7443 134.412 25.7847C134.23 25.8252 134.028 25.8454 133.806 25.8454C133.261 25.8657 132.737 25.8657 132.252 25.8859L129.427 25.9264C129.024 25.9264 128.6 25.9466 128.136 25.9669C128.136 25.9264 128.136 25.9264 128.136 25.9062Z" fill="#37783A"/>
<path d="M153.783 34.8519C153.642 34.7305 153.481 34.3864 153.481 33.5566L153.501 25.7443C153.501 25.1573 153.38 24.6311 153.117 24.1656C152.875 23.7203 152.552 23.3358 152.129 23.012C151.725 22.7084 151.241 22.4655 150.716 22.2834C149.304 21.8381 147.669 22.0202 146.156 22.7489C145.51 23.0727 144.925 23.5179 144.4 24.0846V22.081L144.138 21.8786L139.88 23.1941L139.941 23.5989H141.252C141.575 23.5989 141.757 23.6191 141.858 23.6394C141.979 23.6799 141.999 23.7001 141.999 23.7001C141.999 23.7203 142.039 23.7608 142.039 23.8822C142.059 24.0442 142.059 24.2263 142.059 24.4692V33.5363C142.059 34.184 141.958 34.6495 141.777 34.8317C141.575 35.034 141.293 35.115 140.909 35.115L140.707 35.3174V35.7222L140.909 35.9246H145.55L145.752 35.7222V35.3174L145.55 35.115C145.187 35.115 144.905 35.0138 144.703 34.8114C144.561 34.69 144.4 34.3459 144.4 33.5161V25.7847C144.884 24.9954 145.47 24.4085 146.135 24.0442C147.225 23.4572 148.375 23.3155 149.384 23.6394C149.727 23.7608 150.05 23.9227 150.312 24.1656C150.575 24.3882 150.777 24.6716 150.938 24.9752C151.079 25.299 151.16 25.6633 151.16 26.0681V33.5566C151.16 34.3864 150.999 34.7102 150.857 34.8519C150.656 35.0543 150.373 35.1555 150.01 35.1555L149.808 35.3579V35.7626L150.01 35.965H154.611L154.812 35.7626V35.3579L154.611 35.1555C154.268 35.1352 154.005 35.0543 153.783 34.8519Z" fill="#37783A"/>
<path d="M171.076 19.5511C170.451 18.9641 169.684 18.4986 168.756 18.1546C167.828 17.8105 166.758 17.6283 165.568 17.6283H157.557V18.0331C158.243 18.0331 158.687 18.4986 158.747 18.5998C158.909 18.782 159.01 19.2879 159.01 19.9963V33.5566C159.01 34.1435 158.909 34.5888 158.707 34.8114C158.525 35.0138 158.122 35.1352 157.557 35.1352L157.355 35.3376V35.7424L157.557 35.9448H162.823L163.025 35.7424V35.3376L162.823 35.1352C162.258 35.1352 161.855 35.0138 161.673 34.8114C161.471 34.5888 161.37 34.1435 161.37 33.5566L161.35 29.9135C161.855 29.9742 163.227 30.0957 165.588 30.0552C166.879 30.035 167.929 29.8528 168.796 29.529C169.725 29.1849 170.491 28.7194 171.097 28.1325C171.702 27.5658 172.186 26.8979 172.489 26.149C172.792 25.4002 172.953 24.6311 172.953 23.862C172.953 23.0727 172.792 22.3036 172.489 21.5547C172.166 20.8059 171.702 20.138 171.076 19.5511ZM161.33 19.6927C161.33 19.2879 161.411 18.9844 161.552 18.8022C161.613 18.7213 161.814 18.5593 162.5 18.5593H165.547C166.375 18.5593 167.121 18.701 167.727 19.0046C168.352 19.3082 168.857 19.713 169.281 20.1785C169.704 20.6642 170.007 21.2309 170.229 21.8583C170.431 22.4857 170.552 23.1536 170.552 23.8013C170.552 24.4489 170.451 25.1168 170.229 25.7645C170.027 26.3919 169.704 26.9788 169.281 27.4646C168.857 27.9706 168.332 28.3753 167.727 28.6587C166.355 29.3063 162.278 29.448 161.31 29.4683V19.6927H161.33Z" fill="#37783A"/>
<path d="M185.888 23.1334C184.859 22.4453 183.587 22.1012 182.074 22.1012C180.561 22.1012 179.289 22.4453 178.26 23.1334C177.231 23.8215 176.464 24.6918 175.94 25.724C175.415 26.7562 175.153 27.8694 175.133 29.0635C175.112 30.2576 175.354 31.3707 175.859 32.4029C176.363 33.4351 177.13 34.3257 178.159 34.9936C179.188 35.6817 180.5 36.0258 182.034 36.0258C183.587 36.0258 184.879 35.6817 185.928 34.9936C186.957 34.3054 187.744 33.4351 188.249 32.4029C188.753 31.3707 188.995 30.2374 188.995 29.0635C188.995 27.8694 188.713 26.7562 188.208 25.724C187.704 24.6918 186.917 23.8215 185.888 23.1334ZM183.587 34.8924H183.567C183.406 34.9328 183.244 34.9733 183.083 34.9733C182.922 34.9936 182.74 34.9936 182.579 34.9936C181.751 34.9936 180.984 34.7507 180.318 34.2447C179.612 33.7185 179.027 33.0708 178.583 32.2613C178.119 31.4517 177.776 30.5612 177.594 29.5897C177.393 28.6182 177.372 27.6872 177.514 26.8169C177.655 25.9466 177.978 25.1776 178.482 24.5097C178.966 23.862 179.653 23.437 180.561 23.2144C180.722 23.1739 180.884 23.1334 181.025 23.1334C181.186 23.1132 181.348 23.1132 181.529 23.1132C182.357 23.1132 183.123 23.356 183.789 23.862C184.475 24.3882 185.061 25.0359 185.525 25.8454C185.989 26.655 186.312 27.5455 186.513 28.517C186.695 29.4885 186.735 30.4195 186.594 31.31C186.453 32.1601 186.13 32.9292 185.646 33.5971C185.161 34.2447 184.475 34.6697 183.587 34.8924Z" fill="#37783A"/>
<path d="M194.867 33.5768V22.081L194.605 21.8786L190.347 23.1941L190.408 23.5989H191.72C192.042 23.5989 192.224 23.6191 192.325 23.6596C192.446 23.7001 192.466 23.7203 192.486 23.7203C192.486 23.7406 192.527 23.7811 192.527 23.9025C192.547 24.0644 192.547 24.2668 192.547 24.4894V33.5566C192.547 34.3864 192.385 35.115 192.264 35.2567C192.063 35.4591 191.78 35.54 191.397 35.54V35.9448H195.997V35.54C195.634 35.54 195.352 35.4388 195.15 35.2567C195.009 35.1352 194.867 34.4066 194.867 33.5768Z" fill="#37783A"/>
<path d="M211.697 33.5566L211.717 25.7443C211.717 25.1573 211.596 24.6311 211.333 24.1656C211.091 23.7203 210.768 23.3358 210.345 23.012C209.941 22.7084 209.457 22.4655 208.932 22.2834C207.519 21.8381 205.885 22.0202 204.372 22.7489C203.726 23.0727 203.141 23.5179 202.616 24.0846V22.081L202.354 21.8786L198.096 23.1941L198.156 23.5989H199.468C199.791 23.5989 199.973 23.6191 200.073 23.6596C200.174 23.6799 200.215 23.7203 200.235 23.7203C200.235 23.7406 200.275 23.7811 200.275 23.9025C200.295 24.0644 200.295 24.2668 200.295 24.4894V33.5566C200.295 34.3864 200.134 35.115 200.013 35.2567C199.811 35.4591 199.529 35.54 199.145 35.54V35.7424V35.9448H203.786V35.54C203.423 35.54 203.141 35.4388 202.939 35.2567C202.798 35.115 202.636 34.4066 202.636 33.5768V25.7847C203.12 24.9954 203.706 24.4085 204.372 24.0442C205.461 23.4572 206.611 23.3155 207.62 23.6394C207.963 23.7608 208.286 23.9227 208.549 24.1656C208.811 24.3882 209.013 24.6716 209.174 24.9752C209.315 25.299 209.396 25.6633 209.396 26.0681V33.5566C209.396 34.4066 209.235 35.115 209.093 35.2364C208.892 35.4388 208.609 35.5198 208.246 35.5198V35.9246H212.847V35.5198C212.483 35.5198 212.201 35.4186 211.999 35.2364C211.858 35.115 211.697 34.4066 211.697 33.5566Z" fill="#37783A"/>
<path d="M220.918 34.5685C220.838 34.3661 220.696 34.184 220.495 34.0423L220.474 34.0221C220.273 33.9006 220.091 33.8399 219.93 33.8399C219.687 33.8399 219.445 33.9209 219.244 34.103C219.082 34.2447 218.941 34.3864 218.8 34.5281C218.719 34.6293 218.638 34.7102 218.557 34.7912C218.537 34.7305 218.537 34.6697 218.517 34.5685C218.477 34.3257 218.457 33.9816 218.436 33.5161C218.416 33.0708 218.396 32.5041 218.396 31.7958V23.2953H220.252L220.454 23.0929V22.5869L220.252 22.3845H218.396V20.4213L218.073 20.2594L215.228 22.5262L215.147 22.6881V23.0727L215.349 23.2751H216.055V30.7636C216.055 31.4719 216.075 32.1398 216.116 32.7268C216.156 33.3542 216.277 33.9209 216.519 34.4066C216.762 34.9126 217.145 35.3174 217.649 35.6007C218.134 35.8841 218.84 36.0055 219.687 36.0055C220.071 36.0055 220.353 35.9246 220.555 35.7829C220.757 35.621 220.898 35.4388 220.959 35.2162C221.019 35.034 221.019 34.7912 220.918 34.5685Z" fill="#37783A"/>
<path d="M122.889 30.885L122.789 30.804L122.708 30.7838C122.506 30.7231 122.224 30.7838 122.102 31.0874C121.84 31.6136 121.558 32.1196 121.275 32.5649C120.993 33.0101 120.67 33.3744 120.327 33.6983C119.984 34.0018 119.58 34.265 119.136 34.4269C118.692 34.609 118.168 34.69 117.582 34.69C116.876 34.69 116.19 34.5483 115.544 34.2852C114.899 34.0221 114.334 33.6173 113.849 33.0911C113.365 32.5649 112.961 31.897 112.679 31.1279C112.396 30.3588 112.235 29.448 112.235 28.4361C112.235 27.8086 112.296 27.2217 112.396 26.7157L112.437 26.7562H119.318C120.145 26.7562 120.67 26.7157 120.993 26.6348C121.255 26.5538 121.699 26.3312 121.699 25.5419C121.699 25.0764 121.558 24.6109 121.295 24.1858C121.033 23.7608 120.69 23.3965 120.226 23.0929C119.782 22.7893 119.257 22.5465 118.652 22.3845C118.046 22.2226 117.381 22.1417 116.654 22.1619C115.807 22.1822 114.959 22.3238 114.132 22.6072C113.304 22.8905 112.558 23.3358 111.912 23.9227C111.266 24.5097 110.742 25.2585 110.338 26.1288C109.935 26.9991 109.733 28.0515 109.733 29.2456C109.733 30.379 109.914 31.391 110.298 32.2613C110.661 33.1113 111.165 33.8602 111.771 34.4269C112.376 35.0138 113.103 35.4388 113.89 35.7222C114.677 36.0055 115.484 36.1472 116.291 36.1472C117.3 36.1472 118.208 35.965 118.995 35.5805C119.762 35.2162 120.448 34.7709 120.993 34.2649C121.537 33.759 121.961 33.253 122.284 32.7673C122.607 32.2613 122.809 31.8767 122.889 31.6136C122.97 31.4112 123.01 31.2088 122.93 31.0267L122.889 30.885ZM112.639 25.9062C112.901 25.218 113.244 24.6716 113.647 24.2465C114.051 23.8215 114.515 23.5179 115.02 23.3358C115.524 23.1536 116.049 23.0524 116.573 23.0524C117.138 23.0524 117.643 23.1132 118.046 23.2548C118.45 23.3763 118.773 23.5382 119.015 23.7406C119.257 23.9227 119.419 24.1251 119.54 24.3477C119.641 24.5704 119.701 24.793 119.701 24.9954C119.701 25.1776 119.681 25.299 119.62 25.4002C119.56 25.5014 119.479 25.5621 119.378 25.6228C119.237 25.6835 119.096 25.7443 118.914 25.7847C118.733 25.8252 118.531 25.8454 118.309 25.8454C117.764 25.8657 117.239 25.8657 116.755 25.8859L113.93 25.9264C113.526 25.9264 113.103 25.9466 112.639 25.9669C112.639 25.9264 112.639 25.9264 112.639 25.9062Z" fill="#37783A"/>
<path d="M193.515 19.6523C194.886 19.6523 195.997 18.5377 195.997 17.1628C195.997 15.788 194.886 14.6734 193.515 14.6734C192.145 14.6734 191.033 15.788 191.033 17.1628C191.033 18.5377 192.145 19.6523 193.515 19.6523Z" fill="#C2D84C"/>
<path d="M60.4156 2.24655C60.0927 1.3965 59.447 0 59.447 0C59.447 0 59.225 1.51794 59.1241 2.4287C58.2766 9.97792 50.1243 13.5805 43.5258 13.8234C33.5171 13.8841 19.3314 15.2401 11.623 26.0276C7.56708 31.6743 6.19491 38.9807 7.70833 45.8418C2.96629 46.0239 0.0605366 45.9227 0 45.9227C0.201789 46.0037 3.28916 48.1693 8.53566 48.7765C8.65674 49.1003 8.77781 49.4443 8.89888 49.7682C11.1791 55.3744 16.022 59.6651 22.4994 61.851C25.4052 62.8224 28.4724 63.3082 31.4992 63.3082C34.748 63.3082 37.9363 62.7415 40.8622 61.6283C51.0324 57.7019 58.4784 50.517 62.3931 40.8224C67.0746 29.2254 65.5612 15.5032 60.4156 2.24655ZM55.6332 44.4453C51.6176 50.1325 45.6648 54.6458 39.3084 56.8316C34.3646 58.5317 26.959 59.5842 19.7955 54.9494L19.7551 54.9292C17.374 53.6339 15.457 51.5897 14.105 49.1003C15.0736 49.1003 16.1027 49.0598 17.1319 48.9991C26.3536 48.3919 41.1044 43.4333 50.2454 29.3468C50.1445 29.448 39.1268 40.4177 17.4144 44.6881C15.7395 45.012 14.1454 45.2548 12.6723 45.437C12.0468 43.15 11.8046 40.6201 12.0468 38.0092C12.5109 31.4719 16.6476 25.3192 22.8627 21.919C29.2594 18.276 37.2906 17.5879 43.768 17.0414C47.7634 16.5961 51.7588 15.0175 54.7655 12.69C57.3887 10.6661 59.1443 8.19687 59.9514 5.4241C64.1486 20.5428 62.615 34.6293 55.6332 44.4453Z" fill="#C2D84C"/>
</svg>
